<svg width="70" height="30" viewBox="0 0 70 30" fill="none" xmlns="http://www.w3.org/2000/svg">
<rect width="70" height="30" rx="5" fill="#FCB36F"/>
<path d="M30.244 20C30.052 20 29.878 19.946 29.722 19.838C29.566 19.73 29.458 19.526 29.398 19.226C28.882 19.598 28.342 19.838 27.778 19.946C26.998 20.09 26.284 20.048 25.636 19.82C24.988 19.592 24.442 19.214 23.998 18.686C23.194 17.75 22.798 16.562 22.81 15.122C22.822 13.826 23.242 12.71 24.07 11.774C25.066 10.658 26.374 10.244 27.994 10.532C28.546 10.628 28.966 10.754 29.254 10.91L29.218 8.03C29.218 7.778 29.302 7.562 29.47 7.382C29.65 7.202 29.86 7.112 30.1 7.112C30.352 7.112 30.568 7.202 30.748 7.382C30.928 7.55 31.018 7.754 31.018 7.994C31.102 13.466 31.144 17.168 31.144 19.1C31.144 19.352 31.054 19.568 30.874 19.748C30.706 19.916 30.496 20 30.244 20ZM27.454 18.182C27.682 18.134 27.922 18.05 28.174 17.93C28.426 17.81 28.6 17.714 28.696 17.642C28.804 17.558 28.882 17.486 28.93 17.426C28.99 17.366 29.056 17.3 29.128 17.228C29.2 17.144 29.266 17.018 29.326 16.85C29.326 15.326 29.314 14.114 29.29 13.214C29.278 13.214 29.266 13.208 29.254 13.196C28.75 12.764 28.498 12.542 28.498 12.53C28.366 12.446 28.09 12.368 27.67 12.296C26.71 12.128 25.96 12.356 25.42 12.98C24.88 13.568 24.61 14.282 24.61 15.122C24.598 16.118 24.85 16.922 25.366 17.534C25.882 18.134 26.578 18.35 27.454 18.182ZM37.9344 20.09C37.0464 20.03 36.2724 19.85 35.6124 19.55C34.9524 19.25 34.4484 18.872 34.1004 18.416C33.7524 17.96 33.5004 17.54 33.3444 17.156C33.1884 16.772 33.0924 16.394 33.0564 16.022C33.0204 15.638 33.0384 15.146 33.1104 14.546C33.1944 14.042 33.3684 13.544 33.6324 13.052C33.9084 12.56 34.2684 12.122 34.7124 11.738C35.1684 11.342 35.7144 11.042 36.3504 10.838C36.9864 10.622 37.6644 10.556 38.3844 10.64C39.0804 10.724 39.6744 10.916 40.1664 11.216C40.6584 11.504 41.0784 11.876 41.4264 12.332C41.7264 12.716 41.9064 13.004 41.9664 13.196C42.0384 13.388 42.0984 13.568 42.1464 13.736C42.2064 13.904 42.2544 14.048 42.2904 14.168C42.3264 14.288 42.3564 14.414 42.3804 14.546C42.4164 14.666 42.4404 14.81 42.4524 14.978C42.4644 15.206 42.4224 15.416 42.3264 15.608C42.2304 15.8 42.0864 15.95 41.8944 16.058C41.7384 16.118 41.5704 16.148 41.3904 16.148L38.3124 16.202C36.1524 16.214 35.0724 16.238 35.0724 16.274H35.0184C35.1744 16.886 35.4984 17.366 35.9904 17.714C36.4944 18.062 37.1784 18.266 38.0424 18.326C38.5104 18.35 38.9004 18.326 39.2124 18.254C39.5604 18.158 39.8124 18.074 39.9684 18.002C40.1244 17.918 40.3164 17.81 40.5444 17.678C40.7724 17.594 41.0004 17.606 41.2284 17.714C41.4564 17.822 41.6124 17.99 41.6964 18.218C41.7804 18.446 41.7684 18.668 41.6604 18.884C41.5644 19.1 41.4084 19.268 41.1924 19.388C41.0004 19.496 40.8024 19.592 40.5984 19.676C40.3944 19.748 40.0944 19.838 39.6984 19.946C39.3024 20.054 38.7144 20.102 37.9344 20.09ZM35.0544 14.51C35.7504 14.474 37.5564 14.438 40.4724 14.402C40.3644 14.042 40.1904 13.7 39.9504 13.376C39.4704 12.824 38.8764 12.506 38.1684 12.422C37.4244 12.326 36.7704 12.488 36.2064 12.908C35.6424 13.316 35.2584 13.85 35.0544 14.51ZM45.8683 19.136C45.8563 19.388 45.7603 19.598 45.5803 19.766C45.4003 19.934 45.1843 20.012 44.9323 20C44.6803 19.988 44.4703 19.892 44.3023 19.712C44.1343 19.532 44.0563 19.316 44.0683 19.064C44.1163 17.468 44.1403 16.256 44.1403 15.428C44.1403 14.6 44.1283 13.364 44.1043 11.72C44.0803 10.076 44.0683 8.84 44.0683 8.012C44.0683 7.76 44.1523 7.55 44.3203 7.382C44.5003 7.202 44.7163 7.112 44.9683 7.112C45.2203 7.112 45.4303 7.202 45.5983 7.382C45.7783 7.55 45.8683 7.76 45.8683 8.012C45.8683 8.84 45.8803 10.016 45.9043 11.54C45.9283 13.064 45.9343 14.45 45.9223 15.698C45.9223 16.934 45.9043 18.08 45.8683 19.136Z" fill="#353340"/>
</svg>
