<svg width="112" height="30" viewBox="0 0 112 30" fill="none" xmlns="http://www.w3.org/2000/svg">
<rect width="112" height="30" rx="5" fill="#353340"/>
<path d="M37 21.5C37 23.433 38.567 25 40.5 25H71.5C73.433 25 75 23.433 75 21.5V21.5C75 19.567 73.433 18 71.5 18H40.5C38.567 18 37 19.567 37 21.5V21.5Z" fill="#292734"/>
<path d="M37 8.5C37 10.433 38.567 12 40.5 12H71.5C73.433 12 75 10.433 75 8.5V8.5C75 6.567 73.433 5 71.5 5H40.5C38.567 5 37 6.567 37 8.5V8.5Z" fill="#292734"/>
<path d="M84 21.5C84 23.433 85.567 25 87.5 25V25C89.433 25 91 23.433 91 21.5V21.5C91 19.567 89.433 18 87.5 18V18C85.567 18 84 19.567 84 21.5V21.5Z" fill="#292734"/>
<path d="M100 21.5C100 23.433 101.567 25 103.5 25V25C105.433 25 107 23.433 107 21.5V21.5C107 19.567 105.433 18 103.5 18V18C101.567 18 100 19.567 100 21.5V21.5Z" fill="#292734"/>
<path d="M84 8.5C84 10.433 85.567 12 87.5 12V12C89.433 12 91 10.433 91 8.5V8.5C91 6.567 89.433 5 87.5 5V5C85.567 5 84 6.567 84 8.5V8.5Z" fill="#292734"/>
<path d="M100 8.5C100 10.433 101.567 12 103.5 12V12C105.433 12 107 10.433 107 8.5V8.5C107 6.567 105.433 5 103.5 5V5C101.567 5 100 6.567 100 8.5V8.5Z" fill="#292734"/>
<path d="M5 21.5C5 23.433 6.567 25 8.5 25V25C10.433 25 12 23.433 12 21.5V21.5C12 19.567 10.433 18 8.5 18V18C6.567 18 5 19.567 5 21.5V21.5Z" fill="#292734"/>
<path d="M21 21.5C21 23.433 22.567 25 24.5 25V25C26.433 25 28 23.433 28 21.5V21.5C28 19.567 26.433 18 24.5 18V18C22.567 18 21 19.567 21 21.5V21.5Z" fill="#292734"/>
<path d="M5 8.5C5 10.433 6.567 12 8.5 12V12C10.433 12 12 10.433 12 8.5V8.5C12 6.567 10.433 5 8.5 5V5C6.567 5 5 6.567 5 8.5V8.5Z" fill="#292734"/>
<path d="M21 8.5C21 10.433 22.567 12 24.5 12V12C26.433 12 28 10.433 28 8.5V8.5C28 6.567 26.433 5 24.5 5V5C22.567 5 21 6.567 21 8.5V8.5Z" fill="#292734"/>
</svg>
