<svg width="70" height="30" viewBox="0 0 70 30" fill="none" xmlns="http://www.w3.org/2000/svg">
<rect width="70" height="30" rx="5" fill="#FCB36F"/>
<path d="M17.124 20C16.884 20 16.674 19.922 16.494 19.766C16.314 19.598 16.224 19.376 16.224 19.1L16.188 15.428C16.176 14.6 16.17 13.568 16.17 12.332V11.27C16.17 10.994 16.254 10.778 16.422 10.622C16.59 10.466 16.794 10.388 17.034 10.388C17.286 10.388 17.502 10.472 17.682 10.64C17.874 10.796 17.97 11.018 17.97 11.306V11.846C18.102 11.558 18.348 11.312 18.708 11.108C19.2 10.808 19.74 10.658 20.328 10.658C20.772 10.658 21.114 10.73 21.354 10.874C21.594 11.018 21.714 11.276 21.714 11.648C21.714 11.888 21.642 12.092 21.498 12.26C21.354 12.416 21.144 12.494 20.868 12.494C19.86 12.494 19.164 12.632 18.78 12.908C18.564 13.052 18.372 13.226 18.204 13.43C18.048 13.634 17.97 13.832 17.97 14.024L18.006 16.274L18.024 19.1C18.024 19.376 17.934 19.598 17.754 19.766C17.574 19.922 17.364 20 17.124 20ZM26.7683 20.09C25.8803 20.03 25.1063 19.85 24.4463 19.55C23.7863 19.25 23.2823 18.872 22.9343 18.416C22.5863 17.96 22.3343 17.54 22.1783 17.156C22.0223 16.772 21.9263 16.394 21.8903 16.022C21.8543 15.638 21.8723 15.146 21.9443 14.546C22.0283 14.042 22.2023 13.544 22.4663 13.052C22.7423 12.56 23.1023 12.122 23.5463 11.738C24.0023 11.342 24.5483 11.042 25.1843 10.838C25.8203 10.622 26.4983 10.556 27.2183 10.64C27.9143 10.724 28.5083 10.916 29.0003 11.216C29.4923 11.504 29.9123 11.876 30.2603 12.332C30.5603 12.716 30.7403 13.004 30.8003 13.196C30.8723 13.388 30.9323 13.568 30.9803 13.736C31.0403 13.904 31.0883 14.048 31.1243 14.168C31.1603 14.288 31.1903 14.414 31.2143 14.546C31.2503 14.666 31.2743 14.81 31.2863 14.978C31.2983 15.206 31.2563 15.416 31.1603 15.608C31.0643 15.8 30.9203 15.95 30.7283 16.058C30.5723 16.118 30.4043 16.148 30.2243 16.148L27.1463 16.202C24.9863 16.214 23.9063 16.238 23.9063 16.274H23.8523C24.0083 16.886 24.3323 17.366 24.8243 17.714C25.3283 18.062 26.0123 18.266 26.8763 18.326C27.3443 18.35 27.7343 18.326 28.0463 18.254C28.3943 18.158 28.6463 18.074 28.8023 18.002C28.9583 17.918 29.1503 17.81 29.3783 17.678C29.6063 17.594 29.8343 17.606 30.0623 17.714C30.2903 17.822 30.4463 17.99 30.5303 18.218C30.6143 18.446 30.6023 18.668 30.4943 18.884C30.3983 19.1 30.2423 19.268 30.0263 19.388C29.8343 19.496 29.6363 19.592 29.4323 19.676C29.2283 19.748 28.9283 19.838 28.5323 19.946C28.1363 20.054 27.5483 20.102 26.7683 20.09ZM23.8883 14.51C24.5843 14.474 26.3903 14.438 29.3063 14.402C29.1983 14.042 29.0243 13.7 28.7843 13.376C28.3043 12.824 27.7103 12.506 27.0023 12.422C26.2583 12.326 25.6043 12.488 25.0403 12.908C24.4763 13.316 24.0923 13.85 23.8883 14.51ZM37.9963 19.712C37.5643 19.88 37.0723 19.976 36.5203 20C35.9803 20.024 35.4763 19.964 35.0083 19.82C34.5403 19.664 34.1263 19.43 33.7663 19.118C33.1423 18.602 32.7403 17.96 32.5603 17.192C32.3803 16.424 32.3743 15.734 32.5423 15.122C32.7103 14.51 32.9623 13.916 33.2983 13.34C33.6463 12.752 34.0183 12.26 34.4143 11.864C34.8223 11.456 35.2903 11.114 35.8183 10.838C36.3463 10.562 36.8983 10.43 37.4743 10.442C38.0503 10.442 38.6563 10.598 39.2923 10.91C39.3883 10.958 39.4903 11.03 39.5983 11.126C39.7183 11.222 39.8203 11.306 39.9043 11.378L40.1383 11.612C40.2103 11.684 40.2463 11.726 40.2463 11.738C40.4383 11.906 40.5403 12.122 40.5523 12.386C40.7083 13.106 40.8103 13.862 40.8583 14.654C40.9063 15.446 40.9183 16.19 40.8943 16.886C40.8823 17.582 40.8943 18.32 40.9303 19.1C40.9423 19.34 40.8643 19.55 40.6963 19.73C40.5283 19.91 40.3183 20.006 40.0663 20.018C39.8143 20.03 39.5983 19.952 39.4183 19.784C39.2383 19.616 39.1423 19.412 39.1303 19.172V18.902C38.7703 19.274 38.3923 19.544 37.9963 19.712ZM37.1863 18.092C37.3663 18.044 37.5103 17.996 37.6183 17.948C37.7263 17.9 37.8583 17.828 38.0143 17.732C38.1823 17.636 38.3563 17.516 38.5363 17.372C38.7163 17.228 38.8783 17.048 39.0223 16.832C39.0463 16.808 39.0763 16.784 39.1123 16.76C39.1123 15.14 39.0103 13.838 38.8063 12.854C38.7703 12.806 38.7283 12.764 38.6803 12.728C38.6443 12.68 38.6143 12.644 38.5903 12.62C38.5783 12.596 38.5543 12.578 38.5183 12.566C38.4943 12.542 38.4643 12.518 38.4283 12.494C37.8523 12.182 37.2463 12.176 36.6103 12.476C35.9743 12.764 35.4163 13.31 34.9363 14.114C34.4563 14.93 34.2163 15.644 34.2163 16.256C34.2283 16.856 34.4623 17.354 34.9183 17.75C35.1943 17.978 35.5363 18.122 35.9443 18.182C36.3523 18.242 36.7663 18.212 37.1863 18.092ZM50.2616 20C50.0696 20 49.8956 19.946 49.7396 19.838C49.5836 19.73 49.4756 19.526 49.4156 19.226C48.8996 19.598 48.3596 19.838 47.7956 19.946C47.0156 20.09 46.3016 20.048 45.6536 19.82C45.0056 19.592 44.4596 19.214 44.0156 18.686C43.2116 17.75 42.8156 16.562 42.8276 15.122C42.8396 13.826 43.2596 12.71 44.0876 11.774C45.0836 10.658 46.3916 10.244 48.0116 10.532C48.5636 10.628 48.9836 10.754 49.2716 10.91L49.2356 8.03C49.2356 7.778 49.3196 7.562 49.4876 7.382C49.6676 7.202 49.8776 7.112 50.1176 7.112C50.3696 7.112 50.5856 7.202 50.7656 7.382C50.9456 7.55 51.0356 7.754 51.0356 7.994C51.1196 13.466 51.1616 17.168 51.1616 19.1C51.1616 19.352 51.0716 19.568 50.8916 19.748C50.7236 19.916 50.5136 20 50.2616 20ZM47.4716 18.182C47.6996 18.134 47.9396 18.05 48.1916 17.93C48.4436 17.81 48.6176 17.714 48.7136 17.642C48.8216 17.558 48.8996 17.486 48.9476 17.426C49.0076 17.366 49.0736 17.3 49.1456 17.228C49.2176 17.144 49.2836 17.018 49.3436 16.85C49.3436 15.326 49.3316 14.114 49.3076 13.214C49.2956 13.214 49.2836 13.208 49.2716 13.196C48.7676 12.764 48.5156 12.542 48.5156 12.53C48.3836 12.446 48.1076 12.368 47.6876 12.296C46.7276 12.128 45.9776 12.356 45.4376 12.98C44.8976 13.568 44.6276 14.282 44.6276 15.122C44.6156 16.118 44.8676 16.922 45.3836 17.534C45.8996 18.134 46.5956 18.35 47.4716 18.182Z" fill="#353340"/>
</svg>
