<svg width="70" height="30" viewBox="0 0 70 30" fill="none" xmlns="http://www.w3.org/2000/svg">
<rect width="70" height="30" rx="5" fill="#FCB36F"/>
<path d="M18.096 20C17.208 19.844 16.566 19.484 16.17 18.92C15.978 18.668 15.84 18.332 15.756 17.912L15.684 17.516C15.66 17.396 15.636 17.3 15.612 17.228C15.54 17 15.564 16.778 15.684 16.562C15.804 16.346 15.984 16.208 16.224 16.148C16.464 16.088 16.692 16.112 16.908 16.22C17.124 16.328 17.268 16.502 17.34 16.742C17.376 16.874 17.412 17.024 17.448 17.192C17.46 17.252 17.466 17.312 17.466 17.372C17.478 17.42 17.502 17.51 17.538 17.642C17.574 17.798 17.658 17.93 17.79 18.038C17.934 18.17 18.15 18.254 18.438 18.29C18.918 18.386 19.434 18.374 19.986 18.254C20.526 18.134 20.946 17.96 21.246 17.732C21.462 17.54 21.552 17.342 21.516 17.138C21.48 16.802 21.27 16.55 20.886 16.382C20.646 16.274 20.022 16.13 19.014 15.95C17.97 15.746 17.232 15.482 16.8 15.158C16.008 14.57 15.75 13.694 16.026 12.53C16.194 11.858 16.536 11.366 17.052 11.054C17.58 10.73 18.162 10.55 18.798 10.514C19.338 10.49 19.884 10.556 20.436 10.712C21 10.856 21.48 11.06 21.876 11.324C22.008 11.42 22.146 11.534 22.29 11.666C22.434 11.798 22.572 11.942 22.704 12.098C22.848 12.254 22.932 12.338 22.956 12.35C23.136 12.53 23.226 12.74 23.226 12.98C23.226 13.208 23.136 13.412 22.956 13.592C22.788 13.76 22.578 13.844 22.326 13.844C22.086 13.844 21.876 13.76 21.696 13.592C21.576 13.484 21.456 13.37 21.336 13.25L21.084 12.944C21.012 12.884 20.928 12.824 20.832 12.764C20.604 12.62 20.31 12.5 19.95 12.404C19.59 12.296 19.236 12.248 18.888 12.26C18.252 12.296 17.886 12.518 17.79 12.926C17.682 13.358 17.718 13.64 17.898 13.772C18.114 13.928 18.6 14.084 19.356 14.24C20.472 14.432 21.234 14.618 21.642 14.798C22.626 15.242 23.184 15.956 23.316 16.94C23.424 17.744 23.124 18.44 22.416 19.028C21.876 19.472 21.192 19.778 20.364 19.946C19.572 20.126 18.816 20.144 18.096 20ZM30.0861 19.712C29.6541 19.88 29.1621 19.976 28.6101 20C28.0701 20.024 27.5661 19.964 27.0981 19.82C26.6301 19.664 26.2161 19.43 25.8561 19.118C25.2321 18.602 24.8301 17.96 24.6501 17.192C24.4701 16.424 24.4641 15.734 24.6321 15.122C24.8001 14.51 25.0521 13.916 25.3881 13.34C25.7361 12.752 26.1081 12.26 26.5041 11.864C26.9121 11.456 27.3801 11.114 27.9081 10.838C28.4361 10.562 28.9881 10.43 29.5641 10.442C30.1401 10.442 30.7461 10.598 31.3821 10.91C31.4781 10.958 31.5801 11.03 31.6881 11.126C31.8081 11.222 31.9101 11.306 31.9941 11.378L32.2281 11.612C32.3001 11.684 32.3361 11.726 32.3361 11.738C32.5281 11.906 32.6301 12.122 32.6421 12.386C32.7981 13.106 32.9001 13.862 32.9481 14.654C32.9961 15.446 33.0081 16.19 32.9841 16.886C32.9721 17.582 32.9841 18.32 33.0201 19.1C33.0321 19.34 32.9541 19.55 32.7861 19.73C32.6181 19.91 32.4081 20.006 32.1561 20.018C31.9041 20.03 31.6881 19.952 31.5081 19.784C31.3281 19.616 31.2321 19.412 31.2201 19.172V18.902C30.8601 19.274 30.4821 19.544 30.0861 19.712ZM29.2761 18.092C29.4561 18.044 29.6001 17.996 29.7081 17.948C29.8161 17.9 29.9481 17.828 30.1041 17.732C30.2721 17.636 30.4461 17.516 30.6261 17.372C30.8061 17.228 30.9681 17.048 31.1121 16.832C31.1361 16.808 31.1661 16.784 31.2021 16.76C31.2021 15.14 31.1001 13.838 30.8961 12.854C30.8601 12.806 30.8181 12.764 30.7701 12.728C30.7341 12.68 30.7041 12.644 30.6801 12.62C30.6681 12.596 30.6441 12.578 30.6081 12.566C30.5841 12.542 30.5541 12.518 30.5181 12.494C29.9421 12.182 29.3361 12.176 28.7001 12.476C28.0641 12.764 27.5061 13.31 27.0261 14.114C26.5461 14.93 26.3061 15.644 26.3061 16.256C26.3181 16.856 26.5521 17.354 27.0081 17.75C27.2841 17.978 27.6261 18.122 28.0341 18.182C28.4421 18.242 28.8561 18.212 29.2761 18.092ZM38.1934 20C37.9654 20.012 37.7614 19.952 37.5814 19.82C37.5214 19.772 37.4674 19.718 37.4194 19.658C37.3714 19.61 37.3294 19.556 37.2934 19.496L37.1494 19.244C37.0774 19.1 36.9874 18.902 36.8794 18.65L36.5194 17.84C36.3274 17.372 35.9074 16.304 35.2594 14.636C34.6234 12.956 34.2454 11.966 34.1254 11.666C34.0414 11.438 34.0474 11.21 34.1434 10.982C34.2514 10.754 34.4194 10.598 34.6474 10.514C34.8754 10.418 35.1034 10.424 35.3314 10.532C35.5594 10.628 35.7214 10.79 35.8174 11.018C35.9134 11.282 36.2854 12.266 36.9334 13.97C37.5934 15.674 38.0074 16.736 38.1754 17.156L38.2474 17.318C38.2954 17.234 38.3374 17.15 38.3734 17.066C38.4094 16.97 38.4394 16.898 38.4634 16.85C38.4874 16.79 38.5054 16.736 38.5174 16.688L38.5534 16.616C38.6374 16.424 38.9554 15.608 39.5074 14.168C40.0714 12.728 40.5514 11.648 40.9474 10.928C41.0674 10.712 41.2474 10.568 41.4874 10.496C41.7274 10.424 41.9554 10.448 42.1714 10.568C42.3874 10.688 42.5314 10.868 42.6034 11.108C42.6754 11.348 42.6514 11.576 42.5314 11.792C42.1474 12.488 41.7034 13.484 41.1994 14.78C40.7074 16.076 40.3774 16.928 40.2094 17.336L39.7054 18.434C39.5374 18.77 39.3814 19.046 39.2374 19.262C39.1294 19.418 39.0214 19.544 38.9134 19.64C38.6974 19.856 38.4574 19.976 38.1934 20ZM48.1785 20.09C47.2905 20.03 46.5165 19.85 45.8565 19.55C45.1965 19.25 44.6925 18.872 44.3445 18.416C43.9965 17.96 43.7445 17.54 43.5885 17.156C43.4325 16.772 43.3365 16.394 43.3005 16.022C43.2645 15.638 43.2825 15.146 43.3545 14.546C43.4385 14.042 43.6125 13.544 43.8765 13.052C44.1525 12.56 44.5125 12.122 44.9565 11.738C45.4125 11.342 45.9585 11.042 46.5945 10.838C47.2305 10.622 47.9085 10.556 48.6285 10.64C49.3245 10.724 49.9185 10.916 50.4105 11.216C50.9025 11.504 51.3225 11.876 51.6705 12.332C51.9705 12.716 52.1505 13.004 52.2105 13.196C52.2825 13.388 52.3425 13.568 52.3905 13.736C52.4505 13.904 52.4985 14.048 52.5345 14.168C52.5705 14.288 52.6005 14.414 52.6245 14.546C52.6605 14.666 52.6845 14.81 52.6965 14.978C52.7085 15.206 52.6665 15.416 52.5705 15.608C52.4745 15.8 52.3305 15.95 52.1385 16.058C51.9825 16.118 51.8145 16.148 51.6345 16.148L48.5565 16.202C46.3965 16.214 45.3165 16.238 45.3165 16.274H45.2625C45.4185 16.886 45.7425 17.366 46.2345 17.714C46.7385 18.062 47.4225 18.266 48.2865 18.326C48.7545 18.35 49.1445 18.326 49.4565 18.254C49.8045 18.158 50.0565 18.074 50.2125 18.002C50.3685 17.918 50.5605 17.81 50.7885 17.678C51.0165 17.594 51.2445 17.606 51.4725 17.714C51.7005 17.822 51.8565 17.99 51.9405 18.218C52.0245 18.446 52.0125 18.668 51.9045 18.884C51.8085 19.1 51.6525 19.268 51.4365 19.388C51.2445 19.496 51.0465 19.592 50.8425 19.676C50.6385 19.748 50.3385 19.838 49.9425 19.946C49.5465 20.054 48.9585 20.102 48.1785 20.09ZM45.2985 14.51C45.9945 14.474 47.8005 14.438 50.7165 14.402C50.6085 14.042 50.4345 13.7 50.1945 13.376C49.7145 12.824 49.1205 12.506 48.4125 12.422C47.6685 12.326 47.0145 12.488 46.4505 12.908C45.8865 13.316 45.5025 13.85 45.2985 14.51Z" fill="#353340"/>
</svg>
