<svg width="70" height="30" viewBox="0 0 70 30" fill="none" xmlns="http://www.w3.org/2000/svg">
<rect width="70" height="30" rx="5" fill="#FCB36F"/>
<path d="M17.096 20C16.208 19.844 15.566 19.484 15.17 18.92C14.978 18.668 14.84 18.332 14.756 17.912L14.684 17.516C14.66 17.396 14.636 17.3 14.612 17.228C14.54 17 14.564 16.778 14.684 16.562C14.804 16.346 14.984 16.208 15.224 16.148C15.464 16.088 15.692 16.112 15.908 16.22C16.124 16.328 16.268 16.502 16.34 16.742C16.376 16.874 16.412 17.024 16.448 17.192C16.46 17.252 16.466 17.312 16.466 17.372C16.478 17.42 16.502 17.51 16.538 17.642C16.574 17.798 16.658 17.93 16.79 18.038C16.934 18.17 17.15 18.254 17.438 18.29C17.918 18.386 18.434 18.374 18.986 18.254C19.526 18.134 19.946 17.96 20.246 17.732C20.462 17.54 20.552 17.342 20.516 17.138C20.48 16.802 20.27 16.55 19.886 16.382C19.646 16.274 19.022 16.13 18.014 15.95C16.97 15.746 16.232 15.482 15.8 15.158C15.008 14.57 14.75 13.694 15.026 12.53C15.194 11.858 15.536 11.366 16.052 11.054C16.58 10.73 17.162 10.55 17.798 10.514C18.338 10.49 18.884 10.556 19.436 10.712C20 10.856 20.48 11.06 20.876 11.324C21.008 11.42 21.146 11.534 21.29 11.666C21.434 11.798 21.572 11.942 21.704 12.098C21.848 12.254 21.932 12.338 21.956 12.35C22.136 12.53 22.226 12.74 22.226 12.98C22.226 13.208 22.136 13.412 21.956 13.592C21.788 13.76 21.578 13.844 21.326 13.844C21.086 13.844 20.876 13.76 20.696 13.592C20.576 13.484 20.456 13.37 20.336 13.25L20.084 12.944C20.012 12.884 19.928 12.824 19.832 12.764C19.604 12.62 19.31 12.5 18.95 12.404C18.59 12.296 18.236 12.248 17.888 12.26C17.252 12.296 16.886 12.518 16.79 12.926C16.682 13.358 16.718 13.64 16.898 13.772C17.114 13.928 17.6 14.084 18.356 14.24C19.472 14.432 20.234 14.618 20.642 14.798C21.626 15.242 22.184 15.956 22.316 16.94C22.424 17.744 22.124 18.44 21.416 19.028C20.876 19.472 20.192 19.778 19.364 19.946C18.572 20.126 17.816 20.144 17.096 20ZM28.5281 20.09C27.6401 20.03 26.8661 19.85 26.2061 19.55C25.5461 19.25 25.0421 18.872 24.6941 18.416C24.3461 17.96 24.0941 17.54 23.9381 17.156C23.7821 16.772 23.6861 16.394 23.6501 16.022C23.6141 15.638 23.6321 15.146 23.7041 14.546C23.7881 14.042 23.9621 13.544 24.2261 13.052C24.5021 12.56 24.8621 12.122 25.3061 11.738C25.7621 11.342 26.3081 11.042 26.9441 10.838C27.5801 10.622 28.2581 10.556 28.9781 10.64C29.6741 10.724 30.2681 10.916 30.7601 11.216C31.2521 11.504 31.6721 11.876 32.0201 12.332C32.3201 12.716 32.5001 13.004 32.5601 13.196C32.6321 13.388 32.6921 13.568 32.7401 13.736C32.8001 13.904 32.8481 14.048 32.8841 14.168C32.9201 14.288 32.9501 14.414 32.9741 14.546C33.0101 14.666 33.0341 14.81 33.0461 14.978C33.0581 15.206 33.0161 15.416 32.9201 15.608C32.8241 15.8 32.6801 15.95 32.4881 16.058C32.3321 16.118 32.1641 16.148 31.9841 16.148L28.9061 16.202C26.7461 16.214 25.6661 16.238 25.6661 16.274H25.6121C25.7681 16.886 26.0921 17.366 26.5841 17.714C27.0881 18.062 27.7721 18.266 28.6361 18.326C29.1041 18.35 29.4941 18.326 29.8061 18.254C30.1541 18.158 30.4061 18.074 30.5621 18.002C30.7181 17.918 30.9101 17.81 31.1381 17.678C31.3661 17.594 31.5941 17.606 31.8221 17.714C32.0501 17.822 32.2061 17.99 32.2901 18.218C32.3741 18.446 32.3621 18.668 32.2541 18.884C32.1581 19.1 32.0021 19.268 31.7861 19.388C31.5941 19.496 31.3961 19.592 31.1921 19.676C30.9881 19.748 30.6881 19.838 30.2921 19.946C29.8961 20.054 29.3081 20.102 28.5281 20.09ZM25.6481 14.51C26.3441 14.474 28.1501 14.438 31.0661 14.402C30.9581 14.042 30.7841 13.7 30.5441 13.376C30.0641 12.824 29.4701 12.506 28.7621 12.422C28.0181 12.326 27.3641 12.488 26.8001 12.908C26.2361 13.316 25.8521 13.85 25.6481 14.51ZM35.706 20C35.466 20 35.256 19.922 35.076 19.766C34.896 19.598 34.806 19.376 34.806 19.1C34.806 18.152 34.8 17.336 34.788 16.652C34.764 14.612 34.752 12.842 34.752 11.342C34.752 11.066 34.836 10.85 35.004 10.694C35.172 10.538 35.376 10.46 35.616 10.46C35.868 10.46 36.084 10.544 36.264 10.712C36.456 10.868 36.552 11.09 36.552 11.378V11.936C37.296 10.964 38.274 10.478 39.486 10.478C40.53 10.478 41.328 10.844 41.88 11.576C42.444 12.308 42.726 13.292 42.726 14.528C42.726 15.896 42.708 16.796 42.672 17.228L42.582 18.434L42.528 19.208C42.504 19.448 42.408 19.64 42.24 19.784C42.072 19.928 41.874 20 41.646 20C41.406 20 41.196 19.922 41.016 19.766C40.836 19.598 40.746 19.376 40.746 19.1C40.746 18.908 40.788 18.242 40.872 17.102C40.932 16.322 40.962 15.71 40.962 15.266C40.962 14.246 40.818 13.496 40.53 13.016C40.242 12.524 39.798 12.278 39.198 12.278C38.766 12.278 38.316 12.41 37.848 12.674C37.392 12.938 36.96 13.274 36.552 13.682L36.588 16.238L36.606 19.1C36.606 19.376 36.516 19.598 36.336 19.766C36.156 19.922 35.946 20 35.706 20ZM51.9862 20C51.7942 20 51.6202 19.946 51.4642 19.838C51.3082 19.73 51.2002 19.526 51.1402 19.226C50.6242 19.598 50.0842 19.838 49.5202 19.946C48.7402 20.09 48.0262 20.048 47.3782 19.82C46.7302 19.592 46.1842 19.214 45.7402 18.686C44.9362 17.75 44.5402 16.562 44.5522 15.122C44.5642 13.826 44.9842 12.71 45.8122 11.774C46.8082 10.658 48.1162 10.244 49.7362 10.532C50.2882 10.628 50.7082 10.754 50.9962 10.91L50.9602 8.03C50.9602 7.778 51.0442 7.562 51.2122 7.382C51.3922 7.202 51.6022 7.112 51.8422 7.112C52.0942 7.112 52.3102 7.202 52.4902 7.382C52.6702 7.55 52.7602 7.754 52.7602 7.994C52.8442 13.466 52.8862 17.168 52.8862 19.1C52.8862 19.352 52.7962 19.568 52.6162 19.748C52.4482 19.916 52.2382 20 51.9862 20ZM49.1962 18.182C49.4242 18.134 49.6642 18.05 49.9162 17.93C50.1682 17.81 50.3422 17.714 50.4382 17.642C50.5462 17.558 50.6242 17.486 50.6722 17.426C50.7322 17.366 50.7982 17.3 50.8702 17.228C50.9422 17.144 51.0082 17.018 51.0682 16.85C51.0682 15.326 51.0562 14.114 51.0322 13.214C51.0202 13.214 51.0082 13.208 50.9962 13.196C50.4922 12.764 50.2402 12.542 50.2402 12.53C50.1082 12.446 49.8322 12.368 49.4122 12.296C48.4522 12.128 47.7022 12.356 47.1622 12.98C46.6222 13.568 46.3522 14.282 46.3522 15.122C46.3402 16.118 46.5922 16.922 47.1082 17.534C47.6242 18.134 48.3202 18.35 49.1962 18.182Z" fill="#353340"/>
</svg>
