<svg width="70" height="30" viewBox="0 0 70 30" fill="none" xmlns="http://www.w3.org/2000/svg">
<rect width="70" height="30" rx="5" fill="#FCB36F"/>
<path d="M19.096 20C18.208 19.844 17.566 19.484 17.17 18.92C16.978 18.668 16.84 18.332 16.756 17.912L16.684 17.516C16.66 17.396 16.636 17.3 16.612 17.228C16.54 17 16.564 16.778 16.684 16.562C16.804 16.346 16.984 16.208 17.224 16.148C17.464 16.088 17.692 16.112 17.908 16.22C18.124 16.328 18.268 16.502 18.34 16.742C18.376 16.874 18.412 17.024 18.448 17.192C18.46 17.252 18.466 17.312 18.466 17.372C18.478 17.42 18.502 17.51 18.538 17.642C18.574 17.798 18.658 17.93 18.79 18.038C18.934 18.17 19.15 18.254 19.438 18.29C19.918 18.386 20.434 18.374 20.986 18.254C21.526 18.134 21.946 17.96 22.246 17.732C22.462 17.54 22.552 17.342 22.516 17.138C22.48 16.802 22.27 16.55 21.886 16.382C21.646 16.274 21.022 16.13 20.014 15.95C18.97 15.746 18.232 15.482 17.8 15.158C17.008 14.57 16.75 13.694 17.026 12.53C17.194 11.858 17.536 11.366 18.052 11.054C18.58 10.73 19.162 10.55 19.798 10.514C20.338 10.49 20.884 10.556 21.436 10.712C22 10.856 22.48 11.06 22.876 11.324C23.008 11.42 23.146 11.534 23.29 11.666C23.434 11.798 23.572 11.942 23.704 12.098C23.848 12.254 23.932 12.338 23.956 12.35C24.136 12.53 24.226 12.74 24.226 12.98C24.226 13.208 24.136 13.412 23.956 13.592C23.788 13.76 23.578 13.844 23.326 13.844C23.086 13.844 22.876 13.76 22.696 13.592C22.576 13.484 22.456 13.37 22.336 13.25L22.084 12.944C22.012 12.884 21.928 12.824 21.832 12.764C21.604 12.62 21.31 12.5 20.95 12.404C20.59 12.296 20.236 12.248 19.888 12.26C19.252 12.296 18.886 12.518 18.79 12.926C18.682 13.358 18.718 13.64 18.898 13.772C19.114 13.928 19.6 14.084 20.356 14.24C21.472 14.432 22.234 14.618 22.642 14.798C23.626 15.242 24.184 15.956 24.316 16.94C24.424 17.744 24.124 18.44 23.416 19.028C22.876 19.472 22.192 19.778 21.364 19.946C20.572 20.126 19.816 20.144 19.096 20ZM29.0701 19.946C28.9981 19.922 28.8481 19.886 28.6201 19.838C28.4041 19.79 28.2121 19.736 28.0441 19.676C27.8881 19.616 27.7021 19.532 27.4861 19.424C27.2821 19.304 27.0961 19.148 26.9281 18.956C26.7601 18.752 26.6161 18.512 26.4961 18.236C26.3641 17.912 26.2801 17.276 26.2441 16.328C26.2081 15.596 26.2021 14.654 26.2261 13.502C26.2261 13.286 26.2321 12.926 26.2441 12.422L26.1001 12.44C25.8481 12.464 25.6261 12.398 25.4341 12.242C25.2421 12.086 25.1281 11.888 25.0921 11.648C25.0681 11.396 25.1341 11.174 25.2901 10.982C25.4461 10.79 25.6441 10.676 25.8841 10.64L26.2981 10.604C26.3101 9.968 26.3281 9.326 26.3521 8.678C26.3641 8.426 26.4601 8.216 26.6401 8.048C26.8201 7.88 27.0361 7.802 27.2881 7.814C27.5401 7.826 27.7501 7.922 27.9181 8.102C28.0861 8.282 28.1641 8.498 28.1521 8.75L28.0981 10.46L28.6921 10.424C28.9441 10.412 29.1601 10.484 29.3401 10.64C29.5321 10.796 29.6341 11 29.6461 11.252C29.6701 11.504 29.6041 11.726 29.4481 11.918C29.2921 12.098 29.0881 12.2 28.8361 12.224L28.0441 12.26C28.0321 12.836 28.0261 13.256 28.0261 13.52C28.0021 14.648 28.0081 15.566 28.0441 16.274C28.0681 16.994 28.1041 17.408 28.1521 17.516C28.2001 17.624 28.2361 17.702 28.2601 17.75C28.2841 17.786 28.3261 17.828 28.3861 17.876C28.4581 17.912 28.5301 17.936 28.6021 17.948C28.6741 17.96 28.8061 17.996 28.9981 18.056C29.2021 18.104 29.4181 18.17 29.6461 18.254C29.8741 18.326 30.0421 18.476 30.1501 18.704C30.2701 18.92 30.2881 19.148 30.2041 19.388C30.1321 19.616 29.9821 19.79 29.7541 19.91C29.5381 20.018 29.3101 20.03 29.0701 19.946ZM36.4299 19.712C35.9979 19.88 35.5059 19.976 34.9539 20C34.4139 20.024 33.9099 19.964 33.4419 19.82C32.9739 19.664 32.5599 19.43 32.1999 19.118C31.5759 18.602 31.1739 17.96 30.9939 17.192C30.8139 16.424 30.8079 15.734 30.9759 15.122C31.1439 14.51 31.3959 13.916 31.7319 13.34C32.0799 12.752 32.4519 12.26 32.8479 11.864C33.2559 11.456 33.7239 11.114 34.2519 10.838C34.7799 10.562 35.3319 10.43 35.9079 10.442C36.4839 10.442 37.0899 10.598 37.7259 10.91C37.8219 10.958 37.9239 11.03 38.0319 11.126C38.1519 11.222 38.2539 11.306 38.3379 11.378L38.5719 11.612C38.6439 11.684 38.6799 11.726 38.6799 11.738C38.8719 11.906 38.9739 12.122 38.9859 12.386C39.1419 13.106 39.2439 13.862 39.2919 14.654C39.3399 15.446 39.3519 16.19 39.3279 16.886C39.3159 17.582 39.3279 18.32 39.3639 19.1C39.3759 19.34 39.2979 19.55 39.1299 19.73C38.9619 19.91 38.7519 20.006 38.4999 20.018C38.2479 20.03 38.0319 19.952 37.8519 19.784C37.6719 19.616 37.5759 19.412 37.5639 19.172V18.902C37.2039 19.274 36.8259 19.544 36.4299 19.712ZM35.6199 18.092C35.7999 18.044 35.9439 17.996 36.0519 17.948C36.1599 17.9 36.2919 17.828 36.4479 17.732C36.6159 17.636 36.7899 17.516 36.9699 17.372C37.1499 17.228 37.3119 17.048 37.4559 16.832C37.4799 16.808 37.5099 16.784 37.5459 16.76C37.5459 15.14 37.4439 13.838 37.2399 12.854C37.2039 12.806 37.1619 12.764 37.1139 12.728C37.0779 12.68 37.0479 12.644 37.0239 12.62C37.0119 12.596 36.9879 12.578 36.9519 12.566C36.9279 12.542 36.8979 12.518 36.8619 12.494C36.2859 12.182 35.6799 12.176 35.0439 12.476C34.4079 12.764 33.8499 13.31 33.3699 14.114C32.8899 14.93 32.6499 15.644 32.6499 16.256C32.6619 16.856 32.8959 17.354 33.3519 17.75C33.6279 17.978 33.9699 18.122 34.3779 18.182C34.7859 18.242 35.1999 18.212 35.6199 18.092ZM42.5752 20C42.3352 20 42.1252 19.922 41.9452 19.766C41.7652 19.598 41.6752 19.376 41.6752 19.1L41.6392 15.428C41.6272 14.6 41.6212 13.568 41.6212 12.332V11.27C41.6212 10.994 41.7052 10.778 41.8732 10.622C42.0412 10.466 42.2452 10.388 42.4852 10.388C42.7372 10.388 42.9532 10.472 43.1332 10.64C43.3252 10.796 43.4212 11.018 43.4212 11.306V11.846C43.5532 11.558 43.7992 11.312 44.1592 11.108C44.6512 10.808 45.1912 10.658 45.7792 10.658C46.2232 10.658 46.5652 10.73 46.8052 10.874C47.0452 11.018 47.1652 11.276 47.1652 11.648C47.1652 11.888 47.0932 12.092 46.9492 12.26C46.8052 12.416 46.5952 12.494 46.3192 12.494C45.3112 12.494 44.6152 12.632 44.2312 12.908C44.0152 13.052 43.8232 13.226 43.6552 13.43C43.4992 13.634 43.4212 13.832 43.4212 14.024L43.4572 16.274L43.4752 19.1C43.4752 19.376 43.3852 19.598 43.2052 19.766C43.0252 19.922 42.8152 20 42.5752 20ZM51.3064 19.946C51.2344 19.922 51.0844 19.886 50.8564 19.838C50.6404 19.79 50.4484 19.736 50.2804 19.676C50.1244 19.616 49.9384 19.532 49.7224 19.424C49.5184 19.304 49.3324 19.148 49.1644 18.956C48.9964 18.752 48.8524 18.512 48.7324 18.236C48.6004 17.912 48.5164 17.276 48.4804 16.328C48.4444 15.596 48.4384 14.654 48.4624 13.502C48.4624 13.286 48.4684 12.926 48.4804 12.422L48.3364 12.44C48.0844 12.464 47.8624 12.398 47.6704 12.242C47.4784 12.086 47.3644 11.888 47.3284 11.648C47.3044 11.396 47.3704 11.174 47.5264 10.982C47.6824 10.79 47.8804 10.676 48.1204 10.64L48.5344 10.604C48.5464 9.968 48.5644 9.326 48.5884 8.678C48.6004 8.426 48.6964 8.216 48.8764 8.048C49.0564 7.88 49.2724 7.802 49.5244 7.814C49.7764 7.826 49.9864 7.922 50.1544 8.102C50.3224 8.282 50.4004 8.498 50.3884 8.75L50.3344 10.46L50.9284 10.424C51.1804 10.412 51.3964 10.484 51.5764 10.64C51.7684 10.796 51.8704 11 51.8824 11.252C51.9064 11.504 51.8404 11.726 51.6844 11.918C51.5284 12.098 51.3244 12.2 51.0724 12.224L50.2804 12.26C50.2684 12.836 50.2624 13.256 50.2624 13.52C50.2384 14.648 50.2444 15.566 50.2804 16.274C50.3044 16.994 50.3404 17.408 50.3884 17.516C50.4364 17.624 50.4724 17.702 50.4964 17.75C50.5204 17.786 50.5624 17.828 50.6224 17.876C50.6944 17.912 50.7664 17.936 50.8384 17.948C50.9104 17.96 51.0424 17.996 51.2344 18.056C51.4384 18.104 51.6544 18.17 51.8824 18.254C52.1104 18.326 52.2784 18.476 52.3864 18.704C52.5064 18.92 52.5244 19.148 52.4404 19.388C52.3684 19.616 52.2184 19.79 51.9904 19.91C51.7744 20.018 51.5464 20.03 51.3064 19.946Z" fill="#353340"/>
</svg>
