<svg width="70" height="30" viewBox="0 0 70 30" fill="none" xmlns="http://www.w3.org/2000/svg">
<rect width="70" height="30" rx="5" fill="#FCB36F"/>
<path d="M20.096 20C19.208 19.844 18.566 19.484 18.17 18.92C17.978 18.668 17.84 18.332 17.756 17.912L17.684 17.516C17.66 17.396 17.636 17.3 17.612 17.228C17.54 17 17.564 16.778 17.684 16.562C17.804 16.346 17.984 16.208 18.224 16.148C18.464 16.088 18.692 16.112 18.908 16.22C19.124 16.328 19.268 16.502 19.34 16.742C19.376 16.874 19.412 17.024 19.448 17.192C19.46 17.252 19.466 17.312 19.466 17.372C19.478 17.42 19.502 17.51 19.538 17.642C19.574 17.798 19.658 17.93 19.79 18.038C19.934 18.17 20.15 18.254 20.438 18.29C20.918 18.386 21.434 18.374 21.986 18.254C22.526 18.134 22.946 17.96 23.246 17.732C23.462 17.54 23.552 17.342 23.516 17.138C23.48 16.802 23.27 16.55 22.886 16.382C22.646 16.274 22.022 16.13 21.014 15.95C19.97 15.746 19.232 15.482 18.8 15.158C18.008 14.57 17.75 13.694 18.026 12.53C18.194 11.858 18.536 11.366 19.052 11.054C19.58 10.73 20.162 10.55 20.798 10.514C21.338 10.49 21.884 10.556 22.436 10.712C23 10.856 23.48 11.06 23.876 11.324C24.008 11.42 24.146 11.534 24.29 11.666C24.434 11.798 24.572 11.942 24.704 12.098C24.848 12.254 24.932 12.338 24.956 12.35C25.136 12.53 25.226 12.74 25.226 12.98C25.226 13.208 25.136 13.412 24.956 13.592C24.788 13.76 24.578 13.844 24.326 13.844C24.086 13.844 23.876 13.76 23.696 13.592C23.576 13.484 23.456 13.37 23.336 13.25L23.084 12.944C23.012 12.884 22.928 12.824 22.832 12.764C22.604 12.62 22.31 12.5 21.95 12.404C21.59 12.296 21.236 12.248 20.888 12.26C20.252 12.296 19.886 12.518 19.79 12.926C19.682 13.358 19.718 13.64 19.898 13.772C20.114 13.928 20.6 14.084 21.356 14.24C22.472 14.432 23.234 14.618 23.642 14.798C24.626 15.242 25.184 15.956 25.316 16.94C25.424 17.744 25.124 18.44 24.416 19.028C23.876 19.472 23.192 19.778 22.364 19.946C21.572 20.126 20.816 20.144 20.096 20ZM30.0701 19.946C29.9981 19.922 29.8481 19.886 29.6201 19.838C29.4041 19.79 29.2121 19.736 29.0441 19.676C28.8881 19.616 28.7021 19.532 28.4861 19.424C28.2821 19.304 28.0961 19.148 27.9281 18.956C27.7601 18.752 27.6161 18.512 27.4961 18.236C27.3641 17.912 27.2801 17.276 27.2441 16.328C27.2081 15.596 27.2021 14.654 27.2261 13.502C27.2261 13.286 27.2321 12.926 27.2441 12.422L27.1001 12.44C26.8481 12.464 26.6261 12.398 26.4341 12.242C26.2421 12.086 26.1281 11.888 26.0921 11.648C26.0681 11.396 26.1341 11.174 26.2901 10.982C26.4461 10.79 26.6441 10.676 26.8841 10.64L27.2981 10.604C27.3101 9.968 27.3281 9.326 27.3521 8.678C27.3641 8.426 27.4601 8.216 27.6401 8.048C27.8201 7.88 28.0361 7.802 28.2881 7.814C28.5401 7.826 28.7501 7.922 28.9181 8.102C29.0861 8.282 29.1641 8.498 29.1521 8.75L29.0981 10.46L29.6921 10.424C29.9441 10.412 30.1601 10.484 30.3401 10.64C30.5321 10.796 30.6341 11 30.6461 11.252C30.6701 11.504 30.6041 11.726 30.4481 11.918C30.2921 12.098 30.0881 12.2 29.8361 12.224L29.0441 12.26C29.0321 12.836 29.0261 13.256 29.0261 13.52C29.0021 14.648 29.0081 15.566 29.0441 16.274C29.0681 16.994 29.1041 17.408 29.1521 17.516C29.2001 17.624 29.2361 17.702 29.2601 17.75C29.2841 17.786 29.3261 17.828 29.3861 17.876C29.4581 17.912 29.5301 17.936 29.6021 17.948C29.6741 17.96 29.8061 17.996 29.9981 18.056C30.2021 18.104 30.4181 18.17 30.6461 18.254C30.8741 18.326 31.0421 18.476 31.1501 18.704C31.2701 18.92 31.2881 19.148 31.2041 19.388C31.1321 19.616 30.9821 19.79 30.7541 19.91C30.5381 20.018 30.3101 20.03 30.0701 19.946ZM37.3219 19.874C35.7379 20.258 34.4719 19.94 33.5239 18.92C32.7679 18.14 32.2999 17.138 32.1199 15.914C31.9879 14.954 32.1019 14.042 32.4619 13.178C32.8939 12.074 33.5779 11.258 34.5139 10.73C34.7059 10.622 34.9459 10.544 35.2339 10.496C35.2459 10.496 35.3299 10.49 35.4859 10.478C35.5459 10.466 35.5939 10.454 35.6299 10.442C35.8099 10.406 35.9899 10.424 36.1699 10.496C36.2179 10.496 36.3319 10.502 36.5119 10.514C36.6919 10.514 36.8119 10.52 36.8719 10.532C36.9319 10.532 37.0339 10.544 37.1779 10.568C37.3339 10.58 37.4599 10.598 37.5559 10.622L37.8979 10.748C38.0419 10.796 38.1799 10.856 38.3119 10.928C38.4439 11 38.5879 11.084 38.7439 11.18C39.5239 11.708 40.0639 12.452 40.3639 13.412C40.6639 14.36 40.7419 15.128 40.5979 15.716C40.4899 16.364 40.2979 16.97 40.0219 17.534C39.7459 18.086 39.3619 18.578 38.8699 19.01C38.3899 19.442 37.8739 19.73 37.3219 19.874ZM36.7639 18.002C37.2799 17.93 37.7179 17.666 38.0779 17.21C38.4499 16.742 38.6899 16.25 38.7979 15.734C38.9179 15.218 38.8759 14.654 38.6719 14.042C38.4799 13.418 38.1679 12.968 37.7359 12.692C37.6039 12.596 37.4959 12.53 37.4119 12.494C37.3279 12.446 37.2259 12.41 37.1059 12.386C36.9979 12.35 36.9079 12.332 36.8359 12.332C36.7759 12.332 36.6379 12.326 36.4219 12.314C36.2059 12.302 36.0139 12.29 35.8459 12.278C35.8099 12.278 35.7679 12.272 35.7199 12.26C35.5879 12.272 35.5159 12.278 35.5039 12.278L35.3779 12.314C34.8499 12.602 34.4419 13.064 34.1539 13.7C33.8779 14.324 33.7999 14.972 33.9199 15.644C34.0519 16.46 34.3459 17.078 34.8019 17.498C35.2939 17.954 35.9479 18.122 36.7639 18.002ZM44.4563 22.718C44.4563 22.97 44.3663 23.18 44.1863 23.348C44.0063 23.516 43.7903 23.6 43.5383 23.6C43.2863 23.6 43.0763 23.51 42.9083 23.33C42.7403 23.15 42.6563 22.934 42.6563 22.682C42.7043 20.318 42.7283 16.544 42.7283 11.36C42.7283 11.108 42.8123 10.898 42.9803 10.73C43.1603 10.55 43.3763 10.46 43.6283 10.46C43.8083 10.46 43.9703 10.544 44.1143 10.712C44.2703 10.868 44.3843 11.066 44.4563 11.306L44.7083 11.144C45.4283 10.712 46.1423 10.478 46.8503 10.442C47.5583 10.406 48.1943 10.562 48.7583 10.91C49.2863 11.21 49.7303 11.63 50.0903 12.17C50.4623 12.71 50.7323 13.298 50.9003 13.934C51.0323 14.39 51.1043 14.876 51.1163 15.392C51.1283 15.908 51.0623 16.388 50.9183 16.832C50.7743 17.276 50.5643 17.714 50.2883 18.146C50.0123 18.578 49.6223 18.956 49.1183 19.28C48.6263 19.604 48.0563 19.826 47.4083 19.946C46.2923 20.15 45.3263 19.958 44.5103 19.37C44.4983 20.486 44.4803 21.602 44.4563 22.718ZM47.0843 18.182C47.9963 18.014 48.6323 17.582 48.9923 16.886C49.3643 16.178 49.4243 15.35 49.1723 14.402C48.9203 13.466 48.4823 12.824 47.8583 12.476C47.2223 12.104 46.4843 12.176 45.6443 12.692C45.2603 12.92 45.0383 13.07 44.9783 13.142C44.9423 13.178 44.9123 13.214 44.8883 13.25C44.8643 13.274 44.8223 13.34 44.7623 13.448L44.5283 13.772V16.724C44.5883 16.784 44.6363 16.85 44.6723 16.922C45.0083 17.45 45.3623 17.816 45.7343 18.02C46.1063 18.224 46.5563 18.278 47.0843 18.182Z" fill="#353340"/>
</svg>
